<mxfile host="app.diagrams.net" modified="2023-05-10T16:00:27.112Z" agent="Mozilla/5.0 (Windows NT 10.0; Win64; x64) AppleWebKit/537.36 (KHTML, like Gecko) Chrome/112.0.0.0 Safari/537.36" etag="0pS1FEVeFe0q7Q_Bhbm1" version="21.2.9" type="device">
  <diagram name="Page-1" id="Wqav4wuZ1XFlzgc4xq4E">
    <mxGraphModel dx="1477" dy="599" grid="0" gridSize="10" guides="1" tooltips="1" connect="1" arrows="1" fold="1" page="0" pageScale="1" pageWidth="827" pageHeight="1169" math="0" shadow="0">
      <root>
        <mxCell id="0" />
        <mxCell id="1" parent="0" />
        <mxCell id="DjzVSczOP52KVcYlK8Ku-2" value="10 лет" style="text;html=1;strokeColor=none;fillColor=none;align=center;verticalAlign=middle;whiteSpace=wrap;rounded=0;" vertex="1" parent="1">
          <mxGeometry x="430" y="330" width="60" height="30" as="geometry" />
        </mxCell>
        <mxCell id="DjzVSczOP52KVcYlK8Ku-3" value="" style="endArrow=classic;html=1;rounded=0;" edge="1" parent="1">
          <mxGeometry width="50" height="50" relative="1" as="geometry">
            <mxPoint x="235" y="329.6" as="sourcePoint" />
            <mxPoint x="685" y="329.6" as="targetPoint" />
          </mxGeometry>
        </mxCell>
        <mxCell id="DjzVSczOP52KVcYlK8Ku-4" value="" style="endArrow=classic;html=1;rounded=0;" edge="1" parent="1">
          <mxGeometry width="50" height="50" relative="1" as="geometry">
            <mxPoint x="240" y="300" as="sourcePoint" />
            <mxPoint x="380" y="260" as="targetPoint" />
          </mxGeometry>
        </mxCell>
        <mxCell id="DjzVSczOP52KVcYlK8Ku-5" value="" style="endArrow=classic;html=1;rounded=0;" edge="1" parent="1">
          <mxGeometry width="50" height="50" relative="1" as="geometry">
            <mxPoint x="380" y="260" as="sourcePoint" />
            <mxPoint x="620" y="150" as="targetPoint" />
          </mxGeometry>
        </mxCell>
        <mxCell id="DjzVSczOP52KVcYlK8Ku-6" value="legacy" style="text;html=1;strokeColor=#b85450;fillColor=#f8cecc;align=center;verticalAlign=middle;whiteSpace=wrap;rounded=0;" vertex="1" parent="1">
          <mxGeometry x="550" y="120" width="60" height="30" as="geometry" />
        </mxCell>
        <mxCell id="DjzVSczOP52KVcYlK8Ku-7" value="10 лет" style="text;html=1;strokeColor=none;fillColor=none;align=center;verticalAlign=middle;whiteSpace=wrap;rounded=0;" vertex="1" parent="1">
          <mxGeometry x="430" y="590" width="60" height="30" as="geometry" />
        </mxCell>
        <mxCell id="DjzVSczOP52KVcYlK8Ku-8" value="" style="endArrow=classic;html=1;rounded=0;" edge="1" parent="1">
          <mxGeometry width="50" height="50" relative="1" as="geometry">
            <mxPoint x="235" y="589.6" as="sourcePoint" />
            <mxPoint x="685" y="589.6" as="targetPoint" />
          </mxGeometry>
        </mxCell>
        <mxCell id="DjzVSczOP52KVcYlK8Ku-9" value="" style="endArrow=classic;html=1;rounded=0;" edge="1" parent="1">
          <mxGeometry width="50" height="50" relative="1" as="geometry">
            <mxPoint x="240" y="560" as="sourcePoint" />
            <mxPoint x="350" y="550" as="targetPoint" />
          </mxGeometry>
        </mxCell>
        <mxCell id="DjzVSczOP52KVcYlK8Ku-11" value="legacy" style="text;html=1;strokeColor=#b85450;fillColor=#f8cecc;align=center;verticalAlign=middle;whiteSpace=wrap;rounded=0;" vertex="1" parent="1">
          <mxGeometry x="640" y="410" width="60" height="30" as="geometry" />
        </mxCell>
        <mxCell id="DjzVSczOP52KVcYlK8Ku-12" value="" style="endArrow=classic;html=1;rounded=0;" edge="1" parent="1">
          <mxGeometry width="50" height="50" relative="1" as="geometry">
            <mxPoint x="350" y="560" as="sourcePoint" />
            <mxPoint x="460" y="550" as="targetPoint" />
          </mxGeometry>
        </mxCell>
        <mxCell id="DjzVSczOP52KVcYlK8Ku-13" value="" style="endArrow=classic;html=1;rounded=0;" edge="1" parent="1">
          <mxGeometry width="50" height="50" relative="1" as="geometry">
            <mxPoint x="440" y="520" as="sourcePoint" />
            <mxPoint x="550" y="510" as="targetPoint" />
          </mxGeometry>
        </mxCell>
        <mxCell id="DjzVSczOP52KVcYlK8Ku-14" value="" style="endArrow=classic;html=1;rounded=0;" edge="1" parent="1">
          <mxGeometry width="50" height="50" relative="1" as="geometry">
            <mxPoint x="530" y="540" as="sourcePoint" />
            <mxPoint x="640" y="530" as="targetPoint" />
          </mxGeometry>
        </mxCell>
        <mxCell id="DjzVSczOP52KVcYlK8Ku-15" value="payment" style="text;html=1;strokeColor=none;fillColor=none;align=center;verticalAlign=middle;whiteSpace=wrap;rounded=0;" vertex="1" parent="1">
          <mxGeometry x="450" y="480" width="60" height="30" as="geometry" />
        </mxCell>
        <mxCell id="DjzVSczOP52KVcYlK8Ku-16" value="morfo" style="text;html=1;strokeColor=none;fillColor=none;align=center;verticalAlign=middle;whiteSpace=wrap;rounded=0;" vertex="1" parent="1">
          <mxGeometry x="260" y="520" width="60" height="30" as="geometry" />
        </mxCell>
        <mxCell id="DjzVSczOP52KVcYlK8Ku-17" value="web-interface" style="text;html=1;strokeColor=none;fillColor=none;align=center;verticalAlign=middle;whiteSpace=wrap;rounded=0;" vertex="1" parent="1">
          <mxGeometry x="560" y="490" width="60" height="30" as="geometry" />
        </mxCell>
        <mxCell id="DjzVSczOP52KVcYlK8Ku-31" style="edgeStyle=orthogonalEdgeStyle;rounded=0;orthogonalLoop=1;jettySize=auto;html=1;entryX=0;entryY=0.5;entryDx=0;entryDy=0;entryPerimeter=0;" edge="1" parent="1" source="DjzVSczOP52KVcYlK8Ku-18" target="DjzVSczOP52KVcYlK8Ku-24">
          <mxGeometry relative="1" as="geometry" />
        </mxCell>
        <mxCell id="DjzVSczOP52KVcYlK8Ku-18" value="Django" style="shape=hexagon;perimeter=hexagonPerimeter2;whiteSpace=wrap;html=1;fixedSize=1;" vertex="1" parent="1">
          <mxGeometry x="200" y="760" width="120" height="80" as="geometry" />
        </mxCell>
        <mxCell id="DjzVSczOP52KVcYlK8Ku-49" style="edgeStyle=orthogonalEdgeStyle;rounded=0;orthogonalLoop=1;jettySize=auto;html=1;entryX=0;entryY=0.25;entryDx=0;entryDy=0;" edge="1" parent="1" source="DjzVSczOP52KVcYlK8Ku-19" target="DjzVSczOP52KVcYlK8Ku-20">
          <mxGeometry relative="1" as="geometry">
            <Array as="points">
              <mxPoint x="727" y="815" />
              <mxPoint x="727" y="798" />
              <mxPoint x="780" y="798" />
            </Array>
          </mxGeometry>
        </mxCell>
        <mxCell id="DjzVSczOP52KVcYlK8Ku-19" value="Flask" style="shape=hexagon;perimeter=hexagonPerimeter2;whiteSpace=wrap;html=1;fixedSize=1;fillColor=#d5e8d4;strokeColor=#82b366;" vertex="1" parent="1">
          <mxGeometry x="563" y="775" width="120" height="80" as="geometry" />
        </mxCell>
        <mxCell id="DjzVSczOP52KVcYlK8Ku-30" style="edgeStyle=orthogonalEdgeStyle;rounded=0;orthogonalLoop=1;jettySize=auto;html=1;" edge="1" parent="1" source="DjzVSczOP52KVcYlK8Ku-20" target="DjzVSczOP52KVcYlK8Ku-21">
          <mxGeometry relative="1" as="geometry" />
        </mxCell>
        <mxCell id="DjzVSczOP52KVcYlK8Ku-20" value="FastApi" style="shape=hexagon;perimeter=hexagonPerimeter2;whiteSpace=wrap;html=1;fixedSize=1;fillColor=#fff2cc;strokeColor=#d6b656;" vertex="1" parent="1">
          <mxGeometry x="784" y="805" width="120" height="80" as="geometry" />
        </mxCell>
        <mxCell id="DjzVSczOP52KVcYlK8Ku-45" style="edgeStyle=orthogonalEdgeStyle;rounded=0;orthogonalLoop=1;jettySize=auto;html=1;" edge="1" parent="1" source="DjzVSczOP52KVcYlK8Ku-21" target="DjzVSczOP52KVcYlK8Ku-44">
          <mxGeometry relative="1" as="geometry" />
        </mxCell>
        <mxCell id="DjzVSczOP52KVcYlK8Ku-21" value="Gin" style="shape=hexagon;perimeter=hexagonPerimeter2;whiteSpace=wrap;html=1;fixedSize=1;fillColor=#e1d5e7;strokeColor=#9673a6;" vertex="1" parent="1">
          <mxGeometry x="775" y="956" width="120" height="80" as="geometry" />
        </mxCell>
        <mxCell id="DjzVSczOP52KVcYlK8Ku-48" style="edgeStyle=orthogonalEdgeStyle;rounded=0;orthogonalLoop=1;jettySize=auto;html=1;" edge="1" parent="1" source="DjzVSczOP52KVcYlK8Ku-22" target="DjzVSczOP52KVcYlK8Ku-19">
          <mxGeometry relative="1" as="geometry" />
        </mxCell>
        <mxCell id="DjzVSczOP52KVcYlK8Ku-22" value="PHP" style="shape=hexagon;perimeter=hexagonPerimeter2;whiteSpace=wrap;html=1;fixedSize=1;fillColor=#ffe6cc;strokeColor=#d79b00;" vertex="1" parent="1">
          <mxGeometry x="400" y="750" width="120" height="80" as="geometry" />
        </mxCell>
        <mxCell id="DjzVSczOP52KVcYlK8Ku-23" value="PostgreSQL" style="shape=cylinder3;whiteSpace=wrap;html=1;boundedLbl=1;backgroundOutline=1;size=15;fillColor=#6a00ff;strokeColor=#3700CC;fontColor=#ffffff;" vertex="1" parent="1">
          <mxGeometry x="607" y="1171" width="106" height="80" as="geometry" />
        </mxCell>
        <mxCell id="DjzVSczOP52KVcYlK8Ku-24" value="Redis" style="shape=cylinder3;whiteSpace=wrap;html=1;boundedLbl=1;backgroundOutline=1;size=15;fillColor=#dae8fc;strokeColor=#6c8ebf;" vertex="1" parent="1">
          <mxGeometry x="344" y="863" width="60" height="70" as="geometry" />
        </mxCell>
        <mxCell id="DjzVSczOP52KVcYlK8Ku-25" value="TXT" style="shape=card;whiteSpace=wrap;html=1;fillColor=#e1d5e7;strokeColor=#9673a6;" vertex="1" parent="1">
          <mxGeometry x="866" y="995" width="70" height="65" as="geometry" />
        </mxCell>
        <mxCell id="DjzVSczOP52KVcYlK8Ku-26" value="react" style="shape=note;whiteSpace=wrap;html=1;backgroundOutline=1;darkOpacity=0.05;fillColor=#dae8fc;strokeColor=#6c8ebf;" vertex="1" parent="1">
          <mxGeometry x="133" y="814" width="80" height="100" as="geometry" />
        </mxCell>
        <mxCell id="DjzVSczOP52KVcYlK8Ku-32" value="Логи" style="swimlane;fontStyle=0;childLayout=stackLayout;horizontal=1;startSize=30;horizontalStack=0;resizeParent=1;resizeParentMax=0;resizeLast=0;collapsible=1;marginBottom=0;whiteSpace=wrap;html=1;fillColor=#dae8fc;strokeColor=#6c8ebf;" vertex="1" parent="1">
          <mxGeometry x="140" y="945" width="140" height="120" as="geometry" />
        </mxCell>
        <mxCell id="DjzVSczOP52KVcYlK8Ku-33" value="Лог 1" style="text;strokeColor=none;fillColor=none;align=left;verticalAlign=middle;spacingLeft=4;spacingRight=4;overflow=hidden;points=[[0,0.5],[1,0.5]];portConstraint=eastwest;rotatable=0;whiteSpace=wrap;html=1;" vertex="1" parent="DjzVSczOP52KVcYlK8Ku-32">
          <mxGeometry y="30" width="140" height="30" as="geometry" />
        </mxCell>
        <mxCell id="DjzVSczOP52KVcYlK8Ku-34" value="Лог 2" style="text;strokeColor=none;fillColor=none;align=left;verticalAlign=middle;spacingLeft=4;spacingRight=4;overflow=hidden;points=[[0,0.5],[1,0.5]];portConstraint=eastwest;rotatable=0;whiteSpace=wrap;html=1;" vertex="1" parent="DjzVSczOP52KVcYlK8Ku-32">
          <mxGeometry y="60" width="140" height="30" as="geometry" />
        </mxCell>
        <mxCell id="DjzVSczOP52KVcYlK8Ku-35" value="Лог 3" style="text;strokeColor=none;fillColor=none;align=left;verticalAlign=middle;spacingLeft=4;spacingRight=4;overflow=hidden;points=[[0,0.5],[1,0.5]];portConstraint=eastwest;rotatable=0;whiteSpace=wrap;html=1;" vertex="1" parent="DjzVSczOP52KVcYlK8Ku-32">
          <mxGeometry y="90" width="140" height="30" as="geometry" />
        </mxCell>
        <mxCell id="DjzVSczOP52KVcYlK8Ku-47" style="edgeStyle=orthogonalEdgeStyle;rounded=0;orthogonalLoop=1;jettySize=auto;html=1;entryX=0;entryY=0.25;entryDx=0;entryDy=0;" edge="1" parent="1" source="DjzVSczOP52KVcYlK8Ku-36" target="DjzVSczOP52KVcYlK8Ku-22">
          <mxGeometry relative="1" as="geometry" />
        </mxCell>
        <mxCell id="DjzVSczOP52KVcYlK8Ku-36" value="Django" style="shape=hexagon;perimeter=hexagonPerimeter2;whiteSpace=wrap;html=1;fixedSize=1;fillColor=#dae8fc;strokeColor=#6c8ebf;" vertex="1" parent="1">
          <mxGeometry x="197" y="760" width="120" height="80" as="geometry" />
        </mxCell>
        <mxCell id="DjzVSczOP52KVcYlK8Ku-37" value="windows" style="text;html=1;strokeColor=none;fillColor=none;align=center;verticalAlign=middle;whiteSpace=wrap;rounded=0;" vertex="1" parent="1">
          <mxGeometry x="-30" y="770" width="60" height="30" as="geometry" />
        </mxCell>
        <mxCell id="DjzVSczOP52KVcYlK8Ku-39" style="edgeStyle=orthogonalEdgeStyle;rounded=0;orthogonalLoop=1;jettySize=auto;html=1;entryX=0.006;entryY=0.724;entryDx=0;entryDy=0;entryPerimeter=0;" edge="1" parent="1" source="DjzVSczOP52KVcYlK8Ku-38" target="DjzVSczOP52KVcYlK8Ku-26">
          <mxGeometry relative="1" as="geometry" />
        </mxCell>
        <mxCell id="DjzVSczOP52KVcYlK8Ku-38" value="Actor" style="shape=umlActor;verticalLabelPosition=bottom;verticalAlign=top;html=1;outlineConnect=0;" vertex="1" parent="1">
          <mxGeometry x="-15" y="830" width="30" height="60" as="geometry" />
        </mxCell>
        <mxCell id="DjzVSczOP52KVcYlK8Ku-40" value="virtual 1" style="text;html=1;strokeColor=none;fillColor=none;align=center;verticalAlign=middle;whiteSpace=wrap;rounded=0;" vertex="1" parent="1">
          <mxGeometry x="317" y="706" width="60" height="30" as="geometry" />
        </mxCell>
        <mxCell id="DjzVSczOP52KVcYlK8Ku-41" value="virtual 2" style="text;html=1;strokeColor=none;fillColor=none;align=center;verticalAlign=middle;whiteSpace=wrap;rounded=0;" vertex="1" parent="1">
          <mxGeometry x="820" y="750" width="60" height="30" as="geometry" />
        </mxCell>
        <mxCell id="DjzVSczOP52KVcYlK8Ku-43" value="" style="shape=flexArrow;endArrow=classic;html=1;rounded=0;exitX=0.625;exitY=1;exitDx=0;exitDy=0;entryX=0;entryY=1;entryDx=0;entryDy=-15;entryPerimeter=0;fillColor=#d80073;strokeColor=#A50040;" edge="1" parent="1" source="DjzVSczOP52KVcYlK8Ku-36" target="DjzVSczOP52KVcYlK8Ku-23">
          <mxGeometry width="50" height="50" relative="1" as="geometry">
            <mxPoint x="373" y="982" as="sourcePoint" />
            <mxPoint x="423" y="932" as="targetPoint" />
            <Array as="points">
              <mxPoint x="369" y="1009" />
            </Array>
          </mxGeometry>
        </mxCell>
        <mxCell id="DjzVSczOP52KVcYlK8Ku-46" style="edgeStyle=orthogonalEdgeStyle;rounded=0;orthogonalLoop=1;jettySize=auto;html=1;" edge="1" parent="1" source="DjzVSczOP52KVcYlK8Ku-44" target="DjzVSczOP52KVcYlK8Ku-23">
          <mxGeometry relative="1" as="geometry" />
        </mxCell>
        <mxCell id="DjzVSczOP52KVcYlK8Ku-44" value="Actix" style="shape=hexagon;perimeter=hexagonPerimeter2;whiteSpace=wrap;html=1;fixedSize=1;fillColor=#6a00ff;strokeColor=#3700CC;fontColor=#ffffff;" vertex="1" parent="1">
          <mxGeometry x="764" y="1108" width="120" height="80" as="geometry" />
        </mxCell>
        <mxCell id="DjzVSczOP52KVcYlK8Ku-50" value="Docker" style="shape=process;whiteSpace=wrap;html=1;backgroundOutline=1;" vertex="1" parent="1">
          <mxGeometry x="477" y="950" width="120" height="60" as="geometry" />
        </mxCell>
      </root>
    </mxGraphModel>
  </diagram>
</mxfile>
